<svg width="14" height="15" viewBox="0 0 14 15" fill="none" xmlns="http://www.w3.org/2000/svg">
<mask id="path-1-inside-1_8130_1620" fill="white">
<path d="M6.66667 12C6.79852 12 6.92741 11.9609 7.03705 11.8876C7.14668 11.8144 7.23213 11.7103 7.28259 11.5885C7.33305 11.4666 7.34625 11.3326 7.32052 11.2033C7.2948 11.074 7.23131 10.9552 7.13807 10.8619C7.04484 10.7687 6.92605 10.7052 6.79673 10.6795C6.66741 10.6538 6.53336 10.667 6.41154 10.7174C6.28973 10.7679 6.18561 10.8533 6.11235 10.963C6.0391 11.0726 6 11.2015 6 11.3333C6 11.5101 6.07024 11.6797 6.19526 11.8047C6.32029 11.9298 6.48986 12 6.66667 12ZM10 12C10.1319 12 10.2607 11.9609 10.3704 11.8876C10.48 11.8144 10.5655 11.7103 10.6159 11.5885C10.6664 11.4666 10.6796 11.3326 10.6539 11.2033C10.6281 11.074 10.5646 10.9552 10.4714 10.8619C10.3782 10.7687 10.2594 10.7052 10.1301 10.6795C10.0007 10.6538 9.8667 10.667 9.74488 10.7174C9.62306 10.7679 9.51894 10.8533 9.44569 10.963C9.37243 11.0726 9.33333 11.2015 9.33333 11.3333C9.33333 11.5101 9.40357 11.6797 9.52859 11.8047C9.65362 11.9298 9.82319 12 10 12ZM10 9.33333C10.1319 9.33333 10.2607 9.29423 10.3704 9.22098C10.48 9.14773 10.5655 9.04361 10.6159 8.92179C10.6664 8.79997 10.6796 8.66593 10.6539 8.53661C10.6281 8.40729 10.5646 8.2885 10.4714 8.19526C10.3782 8.10203 10.2594 8.03853 10.1301 8.01281C10.0007 7.98709 9.8667 8.00029 9.74488 8.05075C9.62306 8.1012 9.51894 8.18665 9.44569 8.29629C9.37243 8.40592 9.33333 8.53481 9.33333 8.66667C9.33333 8.84348 9.40357 9.01305 9.52859 9.13807C9.65362 9.26309 9.82319 9.33333 10 9.33333ZM6.66667 9.33333C6.79852 9.33333 6.92741 9.29423 7.03705 9.22098C7.14668 9.14773 7.23213 9.04361 7.28259 8.92179C7.33305 8.79997 7.34625 8.66593 7.32052 8.53661C7.2948 8.40729 7.23131 8.2885 7.13807 8.19526C7.04484 8.10203 6.92605 8.03853 6.79673 8.01281C6.66741 7.98709 6.53336 8.00029 6.41154 8.05075C6.28973 8.1012 6.18561 8.18665 6.11235 8.29629C6.0391 8.40592 6 8.53481 6 8.66667C6 8.84348 6.07024 9.01305 6.19526 9.13807C6.32029 9.26309 6.48986 9.33333 6.66667 9.33333ZM11.3333 1.33333H10.6667V0.666667C10.6667 0.489856 10.5964 0.320286 10.4714 0.195262C10.3464 0.0702379 10.1768 0 10 0C9.82319 0 9.65362 0.0702379 9.52859 0.195262C9.40357 0.320286 9.33333 0.489856 9.33333 0.666667V1.33333H4V0.666667C4 0.489856 3.92976 0.320286 3.80474 0.195262C3.67971 0.0702379 3.51014 0 3.33333 0C3.15652 0 2.98695 0.0702379 2.86193 0.195262C2.7369 0.320286 2.66667 0.489856 2.66667 0.666667V1.33333H2C1.46957 1.33333 0.960859 1.54405 0.585787 1.91912C0.210714 2.29419 0 2.8029 0 3.33333V12.6667C0 13.1971 0.210714 13.7058 0.585787 14.0809C0.960859 14.456 1.46957 14.6667 2 14.6667H11.3333C11.8638 14.6667 12.3725 14.456 12.7475 14.0809C13.1226 13.7058 13.3333 13.1971 13.3333 12.6667V3.33333C13.3333 2.8029 13.1226 2.29419 12.7475 1.91912C12.3725 1.54405 11.8638 1.33333 11.3333 1.33333ZM12 12.6667C12 12.8435 11.9298 13.013 11.8047 13.1381C11.6797 13.2631 11.5101 13.3333 11.3333 13.3333H2C1.82319 13.3333 1.65362 13.2631 1.5286 13.1381C1.40357 13.013 1.33333 12.8435 1.33333 12.6667V6.66667H12V12.6667ZM12 5.33333H1.33333V3.33333C1.33333 3.15652 1.40357 2.98695 1.5286 2.86193C1.65362 2.7369 1.82319 2.66667 2 2.66667H2.66667V3.33333C2.66667 3.51014 2.7369 3.67971 2.86193 3.80474C2.98695 3.92976 3.15652 4 3.33333 4C3.51014 4 3.67971 3.92976 3.80474 3.80474C3.92976 3.67971 4 3.51014 4 3.33333V2.66667H9.33333V3.33333C9.33333 3.51014 9.40357 3.67971 9.52859 3.80474C9.65362 3.92976 9.82319 4 10 4C10.1768 4 10.3464 3.92976 10.4714 3.80474C10.5964 3.67971 10.6667 3.51014 10.6667 3.33333V2.66667H11.3333C11.5101 2.66667 11.6797 2.7369 11.8047 2.86193C11.9298 2.98695 12 3.15652 12 3.33333V5.33333ZM3.33333 9.33333C3.46519 9.33333 3.59408 9.29423 3.70371 9.22098C3.81335 9.14773 3.89879 9.04361 3.94925 8.92179C3.99971 8.79997 4.01291 8.66593 3.98719 8.53661C3.96147 8.40729 3.89797 8.2885 3.80474 8.19526C3.7115 8.10203 3.59271 8.03853 3.46339 8.01281C3.33407 7.98709 3.20003 8.00029 3.07821 8.05075C2.95639 8.1012 2.85227 8.18665 2.77902 8.29629C2.70577 8.40592 2.66667 8.53481 2.66667 8.66667C2.66667 8.84348 2.7369 9.01305 2.86193 9.13807C2.98695 9.26309 3.15652 9.33333 3.33333 9.33333ZM3.33333 12C3.46519 12 3.59408 11.9609 3.70371 11.8876C3.81335 11.8144 3.89879 11.7103 3.94925 11.5885C3.99971 11.4666 4.01291 11.3326 3.98719 11.2033C3.96147 11.074 3.89797 10.9552 3.80474 10.8619C3.7115 10.7687 3.59271 10.7052 3.46339 10.6795C3.33407 10.6538 3.20003 10.667 3.07821 10.7174C2.95639 10.7679 2.85227 10.8533 2.77902 10.963C2.70577 11.0726 2.66667 11.2015 2.66667 11.3333C2.66667 11.5101 2.7369 11.6797 2.86193 11.8047C2.98695 11.9298 3.15652 12 3.33333 12Z"/>
</mask>
<path d="M6.66667 12C6.79852 12 6.92741 11.9609 7.03705 11.8876C7.14668 11.8144 7.23213 11.7103 7.28259 11.5885C7.33305 11.4666 7.34625 11.3326 7.32052 11.2033C7.2948 11.074 7.23131 10.9552 7.13807 10.8619C7.04484 10.7687 6.92605 10.7052 6.79673 10.6795C6.66741 10.6538 6.53336 10.667 6.41154 10.7174C6.28973 10.7679 6.18561 10.8533 6.11235 10.963C6.0391 11.0726 6 11.2015 6 11.3333C6 11.5101 6.07024 11.6797 6.19526 11.8047C6.32029 11.9298 6.48986 12 6.66667 12ZM10 12C10.1319 12 10.2607 11.9609 10.3704 11.8876C10.48 11.8144 10.5655 11.7103 10.6159 11.5885C10.6664 11.4666 10.6796 11.3326 10.6539 11.2033C10.6281 11.074 10.5646 10.9552 10.4714 10.8619C10.3782 10.7687 10.2594 10.7052 10.1301 10.6795C10.0007 10.6538 9.8667 10.667 9.74488 10.7174C9.62306 10.7679 9.51894 10.8533 9.44569 10.963C9.37243 11.0726 9.33333 11.2015 9.33333 11.3333C9.33333 11.5101 9.40357 11.6797 9.52859 11.8047C9.65362 11.9298 9.82319 12 10 12ZM10 9.33333C10.1319 9.33333 10.2607 9.29423 10.3704 9.22098C10.48 9.14773 10.5655 9.04361 10.6159 8.92179C10.6664 8.79997 10.6796 8.66593 10.6539 8.53661C10.6281 8.40729 10.5646 8.2885 10.4714 8.19526C10.3782 8.10203 10.2594 8.03853 10.1301 8.01281C10.0007 7.98709 9.8667 8.00029 9.74488 8.05075C9.62306 8.1012 9.51894 8.18665 9.44569 8.29629C9.37243 8.40592 9.33333 8.53481 9.33333 8.66667C9.33333 8.84348 9.40357 9.01305 9.52859 9.13807C9.65362 9.26309 9.82319 9.33333 10 9.33333ZM6.66667 9.33333C6.79852 9.33333 6.92741 9.29423 7.03705 9.22098C7.14668 9.14773 7.23213 9.04361 7.28259 8.92179C7.33305 8.79997 7.34625 8.66593 7.32052 8.53661C7.2948 8.40729 7.23131 8.2885 7.13807 8.19526C7.04484 8.10203 6.92605 8.03853 6.79673 8.01281C6.66741 7.98709 6.53336 8.00029 6.41154 8.05075C6.28973 8.1012 6.18561 8.18665 6.11235 8.29629C6.0391 8.40592 6 8.53481 6 8.66667C6 8.84348 6.07024 9.01305 6.19526 9.13807C6.32029 9.26309 6.48986 9.33333 6.66667 9.33333ZM11.3333 1.33333H10.6667V0.666667C10.6667 0.489856 10.5964 0.320286 10.4714 0.195262C10.3464 0.0702379 10.1768 0 10 0C9.82319 0 9.65362 0.0702379 9.52859 0.195262C9.40357 0.320286 9.33333 0.489856 9.33333 0.666667V1.33333H4V0.666667C4 0.489856 3.92976 0.320286 3.80474 0.195262C3.67971 0.0702379 3.51014 0 3.33333 0C3.15652 0 2.98695 0.0702379 2.86193 0.195262C2.7369 0.320286 2.66667 0.489856 2.66667 0.666667V1.33333H2C1.46957 1.33333 0.960859 1.54405 0.585787 1.91912C0.210714 2.29419 0 2.8029 0 3.33333V12.6667C0 13.1971 0.210714 13.7058 0.585787 14.0809C0.960859 14.456 1.46957 14.6667 2 14.6667H11.3333C11.8638 14.6667 12.3725 14.456 12.7475 14.0809C13.1226 13.7058 13.3333 13.1971 13.3333 12.6667V3.33333C13.3333 2.8029 13.1226 2.29419 12.7475 1.91912C12.3725 1.54405 11.8638 1.33333 11.3333 1.33333ZM12 12.6667C12 12.8435 11.9298 13.013 11.8047 13.1381C11.6797 13.2631 11.5101 13.3333 11.3333 13.3333H2C1.82319 13.3333 1.65362 13.2631 1.5286 13.1381C1.40357 13.013 1.33333 12.8435 1.33333 12.6667V6.66667H12V12.6667ZM12 5.33333H1.33333V3.33333C1.33333 3.15652 1.40357 2.98695 1.5286 2.86193C1.65362 2.7369 1.82319 2.66667 2 2.66667H2.66667V3.33333C2.66667 3.51014 2.7369 3.67971 2.86193 3.80474C2.98695 3.92976 3.15652 4 3.33333 4C3.51014 4 3.67971 3.92976 3.80474 3.80474C3.92976 3.67971 4 3.51014 4 3.33333V2.66667H9.33333V3.33333C9.33333 3.51014 9.40357 3.67971 9.52859 3.80474C9.65362 3.92976 9.82319 4 10 4C10.1768 4 10.3464 3.92976 10.4714 3.80474C10.5964 3.67971 10.6667 3.51014 10.6667 3.33333V2.66667H11.3333C11.5101 2.66667 11.6797 2.7369 11.8047 2.86193C11.9298 2.98695 12 3.15652 12 3.33333V5.33333ZM3.33333 9.33333C3.46519 9.33333 3.59408 9.29423 3.70371 9.22098C3.81335 9.14773 3.89879 9.04361 3.94925 8.92179C3.99971 8.79997 4.01291 8.66593 3.98719 8.53661C3.96147 8.40729 3.89797 8.2885 3.80474 8.19526C3.7115 8.10203 3.59271 8.03853 3.46339 8.01281C3.33407 7.98709 3.20003 8.00029 3.07821 8.05075C2.95639 8.1012 2.85227 8.18665 2.77902 8.29629C2.70577 8.40592 2.66667 8.53481 2.66667 8.66667C2.66667 8.84348 2.7369 9.01305 2.86193 9.13807C2.98695 9.26309 3.15652 9.33333 3.33333 9.33333ZM3.33333 12C3.46519 12 3.59408 11.9609 3.70371 11.8876C3.81335 11.8144 3.89879 11.7103 3.94925 11.5885C3.99971 11.4666 4.01291 11.3326 3.98719 11.2033C3.96147 11.074 3.89797 10.9552 3.80474 10.8619C3.7115 10.7687 3.59271 10.7052 3.46339 10.6795C3.33407 10.6538 3.20003 10.667 3.07821 10.7174C2.95639 10.7679 2.85227 10.8533 2.77902 10.963C2.70577 11.0726 2.66667 11.2015 2.66667 11.3333C2.66667 11.5101 2.7369 11.6797 2.86193 11.8047C2.98695 11.9298 3.15652 12 3.33333 12Z" fill="#1D1F20" stroke="#1D1F20" stroke-width="2" mask="url(#path-1-inside-1_8130_1620)"/>
</svg>
